<svg width="120" height="22" viewBox="0 0 120 22" fill="none" xmlns="http://www.w3.org/2000/svg">
<g clip-path="url(#clip0_1_1688)">
<path d="M17.6805 2.82928L16.1006 4.45795C15.9577 4.43809 15.8906 4.33453 15.8149 4.26217C14.8096 3.35882 13.5854 2.73016 12.2621 2.43772C9.75786 1.90003 7.47077 2.41502 5.45367 3.98269C3.79765 5.23902 2.70695 7.09293 2.41803 9.14252C2.09301 11.1535 2.54031 13.2123 3.67134 14.9112C4.80237 16.6101 6.53464 17.8252 8.52503 18.3159C11.2692 18.9798 13.7263 18.3301 15.8677 16.5056C15.9634 16.4247 16.0548 16.3396 16.1534 16.2517C16.1862 16.2573 16.2177 16.2688 16.2463 16.2857C16.752 16.7922 17.2563 17.3015 17.772 17.8236C17.7308 17.8794 17.6854 17.932 17.6362 17.9811C16.2197 19.2996 14.4627 20.2023 12.5606 20.5886C11.6429 20.7821 10.702 20.8447 9.76643 20.7745C6.92221 20.5589 4.54084 19.3998 2.6366 17.2944C1.32351 15.8556 0.45818 14.0698 0.14523 12.153C-0.30484 9.53452 0.269876 6.8442 1.75174 4.63275C3.2336 2.42129 5.51053 0.855966 8.11647 0.257166C11.5878 -0.457862 14.6792 0.318166 17.3905 2.58526L17.6805 2.82928Z" fill="#003732"/>
<path d="M52.7575 16.9978C53.235 17.5139 53.6847 18.0547 54.1046 18.618C54.0482 18.725 53.9657 18.8162 53.8647 18.8833C53.2772 19.3906 52.6091 19.7976 51.8876 20.0878C51.066 20.4248 50.2001 20.6436 49.3162 20.7375C48.7367 20.8025 48.1529 20.82 47.5705 20.79C46.3444 20.748 45.1442 20.4277 44.062 19.8537C43.2603 19.4349 42.5527 18.8585 41.9824 18.1595C41.4122 17.4604 40.9911 16.6535 40.745 15.7877C40.2771 14.2921 40.2771 12.6908 40.745 11.1953C41.5221 8.71541 43.2035 7.12646 45.7234 6.44974C47.2103 6.0407 48.7858 6.07723 50.2519 6.55472C52.6918 7.34353 54.2318 8.99915 54.9061 11.445C55.1492 12.3218 55.2243 13.2362 55.1275 14.1405C55.1275 14.1959 55.1118 14.2498 55.1003 14.3207C55.0232 14.3307 54.9575 14.3434 54.8932 14.3463C54.7789 14.3463 54.6646 14.3463 54.5504 14.3463H43.1692C43.0257 14.3325 42.8808 14.3426 42.7406 14.3761C42.7363 14.4308 42.7363 14.4858 42.7406 14.5406C43.1235 16.5864 44.312 17.9228 46.332 18.496C48.2634 19.045 50.6304 18.6719 52.3033 17.3525L52.7575 16.9978ZM42.7878 12.458C42.8649 12.4704 42.9426 12.479 43.0206 12.4835C45.5634 12.5317 52.5133 12.5048 52.829 12.4452C52.8244 12.2316 52.7863 12.02 52.7161 11.8181C52.2647 10.2377 51.279 9.13677 49.7162 8.57212C48.9035 8.29005 48.0374 8.19308 47.182 8.28838C46.4042 8.35356 45.653 8.6 44.9892 9.00767C43.7763 9.761 43.0849 10.8676 42.7906 12.2381C42.7834 12.3083 42.7825 12.379 42.7878 12.4494V12.458Z" fill="#003732"/>
<path d="M100.219 14.3028C100.094 14.3509 99.9583 14.3665 99.8251 14.3482H88.2725C88.1352 14.3342 87.9964 14.3443 87.8625 14.378C87.8575 14.4361 87.8575 14.4945 87.8625 14.5525C88.2511 16.5969 89.4439 17.9319 91.4625 18.5008C93.3653 19.0385 95.6966 18.6781 97.3509 17.4098C97.5223 17.2779 97.6894 17.1402 97.8737 16.9927C98.12 17.2401 98.3482 17.5047 98.5566 17.7843C98.7851 18.051 99.0037 18.3263 99.2323 18.6043C99.1568 18.7231 99.06 18.8269 98.9466 18.9108C98.39 19.3818 97.7636 19.7646 97.0895 20.0457C96.2373 20.4053 95.336 20.6371 94.4152 20.7338C93.8357 20.7976 93.2519 20.8147 92.6696 20.7849C91.4319 20.7423 90.2211 20.415 89.1325 19.8287C88.3435 19.4102 87.6472 18.8386 87.085 18.1476C86.5227 17.4567 86.1061 16.6606 85.8597 15.8066C85.3714 14.2444 85.3909 12.5691 85.9154 11.0185C86.6626 8.79256 88.1754 7.29725 90.421 6.56661C92.0278 6.03188 93.7657 6.0274 95.3752 6.55384C97.8309 7.34406 99.3665 9.01955 100.032 11.4824C100.264 12.3511 100.335 13.2542 100.244 14.1482C100.238 14.1978 100.228 14.2418 100.219 14.3028ZM97.9423 12.4401C97.9405 12.2365 97.9048 12.0347 97.8366 11.8428C97.368 10.1801 96.3252 9.0536 94.6609 8.5145C93.8839 8.27495 93.0649 8.19956 92.2567 8.29318C91.5487 8.35627 90.863 8.57118 90.2468 8.92308C88.9497 9.67074 88.2097 10.8071 87.904 12.2429C87.8975 12.3099 87.8975 12.3773 87.904 12.4443C87.9363 12.4589 87.9704 12.4693 88.0054 12.4755C91.2834 12.4755 94.5624 12.4755 97.8423 12.4755C97.8771 12.4684 97.9108 12.4565 97.9423 12.4401Z" fill="#003732"/>
<path d="M70.3784 21.9987C70.3055 21.871 70.257 21.7944 70.217 21.715C67.7018 16.6663 65.1866 11.6171 62.6714 6.56743C62.6714 6.55182 62.6714 6.52629 62.6886 6.48231C62.7343 6.48231 62.7871 6.4667 62.8414 6.46387C63.6034 6.43585 64.3663 6.44721 65.1271 6.49792C65.7185 7.68112 66.297 8.88702 66.8856 10.0887C67.4742 11.2903 68.0599 12.5005 68.6484 13.6993C69.237 14.8981 69.8184 16.1111 70.4355 17.3496C70.6698 16.9126 70.8469 16.5126 71.0384 16.1182C71.2298 15.7238 71.4212 15.3209 71.6098 14.9208L72.1983 13.6936L72.7698 12.4948L73.3412 11.2988C73.5316 10.9006 73.7221 10.501 73.9126 10.1L74.504 8.87283C74.6945 8.47465 74.885 8.07552 75.0754 7.67544C75.2669 7.27678 75.4583 6.88097 75.6468 6.49792C76.4555 6.44675 77.2667 6.44675 78.0754 6.49792C78.0911 6.60432 78.0196 6.68518 77.9782 6.77172C77.4363 7.86035 76.8944 8.94802 76.3525 10.0347L70.5712 21.6114C70.5227 21.7263 70.4641 21.8356 70.3784 21.9987Z" fill="#003732"/>
<path d="M112.921 20.4857C112.181 20.5346 111.437 20.5407 110.696 20.5042C110.68 20.4435 110.669 20.3819 110.661 20.3197C110.661 20.2403 110.661 20.1608 110.661 20.0814V6.50153C110.72 6.48188 110.78 6.46809 110.841 6.46038C111.481 6.46038 112.121 6.46038 112.761 6.46038C112.804 6.4639 112.846 6.47054 112.887 6.48025C112.941 6.58473 112.958 6.70391 112.937 6.81932C112.937 7.59015 112.937 8.36098 112.937 9.13181V9.46946C113.057 9.49642 113.057 9.4042 113.08 9.35313C113.594 8.34218 114.396 7.5035 115.386 6.94133C116.374 6.35384 117.525 6.09488 118.671 6.20218C119.059 6.23219 119.443 6.2886 119.823 6.371C119.866 6.38093 119.907 6.39796 119.966 6.4164C119.994 6.78882 120.001 7.16254 119.987 7.53576C119.987 7.90888 119.987 8.282 119.987 8.67073C119.886 8.65229 119.81 8.64377 119.736 8.62533C119.092 8.4647 118.43 8.39169 117.767 8.40827C117.229 8.4193 116.696 8.51212 116.187 8.6835C115.226 9.01196 114.412 9.6646 113.886 10.5278C113.463 11.2175 113.184 11.9839 113.063 12.7821C112.976 13.3197 112.934 13.8635 112.939 14.408C112.939 16.3128 112.939 18.2182 112.939 20.1239C112.941 20.2516 112.933 20.3708 112.921 20.4857Z" fill="#003732"/>
<path d="M30.2335 20.5012C29.4845 20.541 28.734 20.541 27.985 20.5012C27.985 20.4416 27.9679 20.3778 27.965 20.3125C27.965 20.2217 27.965 20.1309 27.965 20.0401V0.74571C27.965 0.60384 27.965 0.453455 27.965 0.300234C28.2278 0.217949 28.4793 0.269026 28.7264 0.259095C28.9735 0.249164 29.2064 0.259095 29.4407 0.259095C29.675 0.259095 29.9392 0.247742 30.2049 0.273279C30.2149 0.355564 30.2278 0.415156 30.2307 0.484673C30.2307 0.57547 30.2307 0.666265 30.2307 0.757062C30.2307 7.18853 30.2307 13.62 30.2307 20.0515C30.2392 20.1919 30.2364 20.3366 30.2335 20.5012Z" fill="#003732"/>
</g>
<defs>
<clipPath id="clip0_1_1688">
<rect width="120" height="21.9985" fill="white"/>
</clipPath>
</defs>
</svg>
